<svg width="17" height="15" viewBox="0 0 17 15" fill="none" xmlns="http://www.w3.org/2000/svg">
<path fill-rule="evenodd" clip-rule="evenodd" d="M8.50007 15C8.35849 15 8.22302 14.9439 8.12341 14.8448L1.40549 8.16129C-0.468496 6.29741 -0.468496 3.26509 1.40549 1.40121C2.31339 0.497586 3.52119 0 4.80629 0C6.09085 0 7.29918 0.497586 8.20682 1.40121C8.30908 1.50284 8.40657 1.60991 8.50007 1.72241C8.59357 1.60991 8.69105 1.50284 8.79278 1.40121C9.70096 0.497586 10.9088 0 12.1938 0C13.4784 0 14.6862 0.497586 15.5946 1.40121C17.4686 3.26509 17.4686 6.29741 15.5946 8.16129L8.87619 14.8448C8.77658 14.9439 8.64111 15 8.50007 15" fill="white"/>
</svg>
