<svg width="19" height="16" viewBox="0 0 19 16" fill="none" xmlns="http://www.w3.org/2000/svg">
<g clip-path="url(#clip0)">
<path fill-rule="evenodd" clip-rule="evenodd" d="M0.730769 1.45455H18.2692C18.673 1.45455 19 1.12873 19 0.727273C19 0.325818 18.673 0 18.2692 0H0.730769C0.327385 0 0 0.325818 0 0.727273C0 1.12873 0.327385 1.45455 0.730769 1.45455" fill="#2C2605"/>
<path fill-rule="evenodd" clip-rule="evenodd" d="M18.2692 7.27272H0.730769C0.327385 7.27272 0 7.59854 0 7.99999C0 8.40145 0.327385 8.72727 0.730769 8.72727H18.2692C18.673 8.72727 19 8.40145 19 7.99999C19 7.59854 18.673 7.27272 18.2692 7.27272" fill="#2C2605"/>
<path fill-rule="evenodd" clip-rule="evenodd" d="M18.2692 14.5455H0.730769C0.327385 14.5455 0 14.8713 0 15.2727C0 15.6742 0.327385 16 0.730769 16H18.2692C18.673 16 19 15.6742 19 15.2727C19 14.8713 18.673 14.5455 18.2692 14.5455" fill="#2C2605"/>
</g>
<defs>
<clipPath id="clip0">
<rect width="19" height="16" fill="white"/>
</clipPath>
</defs>
</svg>
